<svg width="20" height="20" viewBox="0 0 20 20" fill="none" xmlns="http://www.w3.org/2000/svg">
<path d="M13.7901 7.52719C14.3132 7.149 14.7029 6.61477 14.9034 6.00123C15.1038 5.38768 15.1047 4.7264 14.9058 4.11235C14.7069 3.4983 14.3185 2.96307 13.7964 2.58355C13.2744 2.20403 12.6454 1.99973 12 2H7.05452C6.40904 1.99971 5.78008 2.204 5.25797 2.58352C4.73587 2.96305 4.34748 3.49829 4.14859 4.11236C3.9497 4.72643 3.95055 5.38773 4.15102 6.00129C4.35149 6.61485 4.74126 7.14908 5.26434 7.52727C4.87293 7.80994 4.55422 8.18149 4.33442 8.61136C4.11461 9.04123 4 9.51715 4 9.99995C4 10.4828 4.11461 10.9587 4.33442 11.3885C4.55422 11.8184 4.87293 12.19 5.26434 12.4726C4.84092 12.7792 4.50328 13.1893 4.28375 13.6638C4.06423 14.1382 3.97016 14.661 4.01057 15.1822C4.05097 15.7034 4.22449 16.2055 4.51452 16.6404C4.80454 17.0754 5.20135 17.4285 5.66697 17.6662C6.13258 17.9038 6.6514 18.018 7.17376 17.9977C7.69612 17.9774 8.20453 17.8234 8.65031 17.5503C9.09609 17.2773 9.46431 16.8944 9.71973 16.4383C9.97515 15.9822 10.1092 15.4681 10.1091 14.9454V12.3961C10.4279 12.6483 10.7939 12.8342 11.1855 12.943C11.5771 13.0519 11.9866 13.0814 12.3898 13.0298C12.793 12.9783 13.1818 12.8467 13.5335 12.6429C13.8852 12.4391 14.1926 12.167 14.4378 11.8428C14.6829 11.5186 14.8608 11.1486 14.9611 10.7547C15.0613 10.3608 15.0819 9.95078 15.0216 9.5488C14.9612 9.14681 14.8212 8.76093 14.6098 8.41377C14.3983 8.06662 14.1197 7.7652 13.7901 7.52719ZM13.8909 5.05454C13.8903 5.55561 13.6911 6.03602 13.3369 6.39046C12.9827 6.74491 12.5025 6.94449 12.0014 6.94545L12 6.94537L11.9971 6.94545L10.1091 6.94537V3.16363H12C12.5013 3.16421 12.9819 3.36362 13.3364 3.71811C13.6909 4.07259 13.8903 4.55322 13.8909 5.05454ZM5.16361 5.05454C5.16419 4.55322 5.3636 4.07259 5.71808 3.71811C6.07257 3.36362 6.5532 3.16421 7.05452 3.16363H8.94543V6.94537H7.05314C6.55207 6.94443 6.07181 6.74488 5.71762 6.39044C5.36343 6.03601 5.16421 5.55561 5.16361 5.05454ZM5.16361 9.99992C5.16419 9.49883 5.3634 9.01842 5.71759 8.66397C6.07178 8.30952 6.55205 8.10995 7.05314 8.10901L7.05452 8.10908H8.94543V11.8907L7.05452 11.8908C6.5532 11.8902 6.07257 11.6908 5.71808 11.3364C5.3636 10.9819 5.16419 10.5012 5.16361 9.99992ZM7.05452 16.8362C6.80522 16.8377 6.55808 16.79 6.32731 16.6956C6.09654 16.6013 5.8867 16.4623 5.70987 16.2865C5.53304 16.1108 5.39271 15.9018 5.29695 15.6717C5.20119 15.4415 5.15189 15.1946 5.15189 14.9453C5.15189 14.696 5.20119 14.4492 5.29695 14.219C5.39271 13.9888 5.53304 13.7799 5.70987 13.6041C5.8867 13.4284 6.09654 13.2893 6.32731 13.195C6.55808 13.1007 6.80522 13.0529 7.05452 13.0545H8.94543V14.9454C8.94483 15.4467 8.74542 15.9273 8.39093 16.2818C8.03644 16.6362 7.55583 16.8356 7.05452 16.8362ZM12 11.8908C11.5005 11.8881 11.0224 11.6879 10.67 11.3339C10.3176 10.9799 10.1197 10.5008 10.1193 10.0014C10.1189 9.50188 10.3162 9.02254 10.668 8.668C11.0198 8.31346 11.4977 8.11253 11.9971 8.10908H12.0014C12.5009 8.11237 12.9788 8.31313 13.3307 8.66754C13.6827 9.02194 13.8801 9.5012 13.8799 10.0007C13.8797 10.5001 13.6819 10.9793 13.3297 11.3334C12.9775 11.6875 12.4994 11.8879 12 11.8908Z" fill="#414141"/>
</svg>
