<svg width="20" height="20" viewBox="0 0 20 20" fill="none" xmlns="http://www.w3.org/2000/svg">
<path fill-rule="evenodd" clip-rule="evenodd" d="M10 2C5.58 2 2 5.67055 2 10.2024C2 13.8319 4.29 16.8975 7.47 17.9843C7.87 18.0561 8.02 17.81 8.02 17.5947C8.02 17.3999 8.01 16.754 8.01 16.067C6 16.4464 5.48 15.5646 5.32 15.1033C5.23 14.8674 4.84 14.1395 4.5 13.9447C4.22 13.7909 3.82 13.4115 4.49 13.4013C5.12 13.391 5.57 13.9959 5.72 14.242C6.44 15.4826 7.59 15.134 8.05 14.9187C8.12 14.3855 8.33 14.0267 8.56 13.8216C6.78 13.6166 4.92 12.9091 4.92 9.77173C4.92 8.87972 5.23 8.14151 5.74 7.56735C5.66 7.36229 5.38 6.52155 5.82 5.39372C5.82 5.39372 6.49 5.17841 8.02 6.23446C8.66 6.04991 9.34 5.95763 10.02 5.95763C10.7 5.95763 11.38 6.04991 12.02 6.23446C13.55 5.16816 14.22 5.39372 14.22 5.39372C14.66 6.52155 14.38 7.36229 14.3 7.56735C14.81 8.14151 15.12 8.86947 15.12 9.77173C15.12 12.9194 13.25 13.6166 11.47 13.8216C11.76 14.078 12.01 14.5701 12.01 15.3391C12.01 16.4361 12 17.3179 12 17.5947C12 17.81 12.15 18.0664 12.55 17.9843C14.1381 17.4346 15.5181 16.3881 16.4958 14.9921C17.4734 13.5961 17.9995 11.9209 18 10.2024C18 5.67055 14.42 2 10 2Z" fill="#414141"/>
</svg>
