<svg width="20" height="20" viewBox="0 0 20 20" fill="none" xmlns="http://www.w3.org/2000/svg">
<path d="M3.10457 17.2468C2.71404 16.8562 2.71404 16.2231 3.10457 15.8325L15.8325 3.10462C16.223 2.71409 16.8562 2.71409 17.2467 3.10462C17.6372 3.49514 17.6372 4.1283 17.2467 4.51883L4.51878 17.2468C4.12826 17.6373 3.49509 17.6373 3.10457 17.2468Z" fill="#414141"/>
<path d="M2.88274 2.88274C3.27326 2.49221 3.90643 2.49221 4.29695 2.88274L17.0249 15.6107C17.4154 16.0012 17.4154 16.6343 17.0249 17.0249C16.6343 17.4154 16.0012 17.4154 15.6107 17.0249L2.88274 4.29695C2.49221 3.90643 2.49221 3.27326 2.88274 2.88274Z" fill="#414141"/>
</svg>
